# xmcd
#
# Track frame offsets: 
#        150
#        22210
#        42368
#        56637
#        80307
#        102800
#        126179
#        199207
#        213127
#        233788
#        280255
#        284371
#        294428
#        319682
#
# Disc length: 4628 seconds
#
# Revision: 2
# Processed by: cddbd v1.5.2PL0 Copyright (c) Steve Scherf et al.
# Submitted via: ExactAudioCopy v0.95b3
#
DISCID=cd12120e
DTITLE=Duke Robillard - Guitar Groove a Rama
DYEAR=2006
DGENRE=Blues
TTITLE0=Do The Memphis Grind
TTITLE1=Gambler Blues
TTITLE2=Down Along the Cove
TTITLE3=Sunday Mornin'
TTITLE4=Sewed Up
TTITLE5=Danny Boy
TTITLE6=Blues a Rama
TTITLE7=I'll Do Anything but Work
TTITLE8=No Way Out
TTITLE9=This Dream
TTITLE10=Just before Dawn
TTITLE11=Dawn
TTITLE12=Cookin'
TTITLE13=Dark Eyes
EXTD=
EXTT0=
EXTT1=
EXTT2=
EXTT3=
EXTT4=
EXTT5=
EXTT6=
EXTT7=
EXTT8=
EXTT9=
EXTT10=
EXTT11=
EXTT12=
EXTT13=
PLAYORDER=
